<svg width="24" height="24" viewBox="0 0 24 24" fill="none" xmlns="http://www.w3.org/2000/svg">
<path d="M7.3618 7.27639L9.8618 2.27639C9.9465 2.107 10.1196 2 10.309 2H13H14.691C14.8804 2 15.0535 2.107 15.1382 2.27639L17.6382 7.27639C17.8044 7.60884 17.5627 8 17.191 8H7.80902C7.43733 8 7.19558 7.60884 7.3618 7.27639Z" stroke="#733CD9" stroke-width="2.5"/>
<path d="M4 21L21 21" stroke="#733CD9" stroke-width="4" stroke-linecap="round"/>
<path d="M6 14H19" stroke="#23FFC8" stroke-width="3.5" stroke-linecap="round"/>
<path d="M7.3618 7.27639L9.8618 2.27639C9.9465 2.107 10.1196 2 10.309 2H13H14.691C14.8804 2 15.0535 2.107 15.1382 2.27639L17.6382 7.27639C17.8044 7.60884 17.5627 8 17.191 8H7.80902C7.43733 8 7.19558 7.60884 7.3618 7.27639Z" stroke="#733CD9" stroke-width="2.5"/>
</svg>
